<?xml version="1.0" encoding="utf-8"?>
<!-- Generator: Adobe Illustrator 23.0.3, SVG Export Plug-In . SVG Version: 6.00 Build 0)  -->
<svg version="1.1" id="Calque_1" xmlns="http://www.w3.org/2000/svg" xmlns:xlink="http://www.w3.org/1999/xlink" x="0px" y="0px"
	 viewBox="0 0 40 40" style="enable-background:new 0 0 40 40;" xml:space="preserve">
<style type="text/css">
	.st0{fill:none;stroke:#FFFFFF;stroke-width:0.98;stroke-miterlimit:10;}
	.st1{fill:none;stroke:#FFFFFF;stroke-width:2.7122;}
	.st2{display:none;}
	.st3{display:inline;}
	.st4{clip-path:url(#SVGID_3_);}
	.st5{fill:none;stroke:#000000;stroke-width:0.98;stroke-miterlimit:10;}
	.st6{stroke:#000000;stroke-width:0.98;stroke-miterlimit:10;}
	.st7{fill:none;stroke:#FFFFFF;stroke-width:3;stroke-miterlimit:10;}
</style>
<g id="Rectangle_425" transform="translate(578.253 38.002)">
	<path class="st0" d="M-570.4-32.3h24.4c4,0,7.2,3.2,7.2,7.2v14.5c0,4-3.2,7.2-7.2,7.2h-24.4c-4,0-7.2-3.2-7.2-7.2v-14.5
		C-577.7-29-574.4-32.3-570.4-32.3z"/>
	<path class="st1" d="M-570.5-30.9h24.4c3.2,0,5.9,2.6,5.9,5.9v14.5c0,3.2-2.6,5.9-5.9,5.9h-24.4c-3.2,0-5.9-2.6-5.9-5.9V-25
		C-576.3-28.3-573.7-30.9-570.5-30.9z"/>
</g>
<g id="Enveloppe" transform="translate(-38.002 621.253) rotate(-90)">
	<g class="st2">
		<g class="st3">
			<defs>
				<path id="SVGID_2_" d="M1193.8,83.8v24.4c0,4-3.2,7.2-7.2,7.2h-14.5c-4,0-7.2-3.2-7.2-7.2V83.8c0-4,3.2-7.2,7.2-7.2h14.5
					c2.2,0,4.2,1,5.5,2.6C1193.2,80.4,1193.8,82,1193.8,83.8z"/>
			</defs>
			<clipPath id="SVGID_3_">
				<use xlink:href="#SVGID_2_"  style="overflow:visible;"/>
			</clipPath>
			<g id="Groupe_de_masques_9" transform="translate(578.253 38.002)" class="st4">
				<g id="Polygone_3" transform="translate(46 20) rotate(180)">
					<path class="st5" d="M25.9-1.6c0.6,0.7,0.6,1.6,0,2.3l-14,16.7c-0.6,0.8-1.8,0.9-2.5,0.2c-0.4-0.3-0.6-0.8-0.6-1.4v-33.4
						c0-1,0.8-1.8,1.8-1.8c0.5,0,1,0.2,1.4,0.7L25.9-1.6z"/>
					<path class="st6" d="M23.3-0.5L11.5-14.7v28.4L23.3-0.5 M26.3-0.5c0,0.4-0.1,0.8-0.4,1.2l-14,16.7c-1.1,1.3-3.2,0.5-3.2-1.2
						v-33.4c0-1.7,2.1-2.5,3.2-1.2l14,16.8C26.1-1.3,26.3-0.9,26.3-0.5z"/>
				</g>
			</g>
		</g>
		<g class="st3">
			<path id="SVGID_1_" class="st5" d="M615.5,45.8v24.4c0,4-3.2,7.2-7.2,7.2h-14.5c-4,0-7.2-3.2-7.2-7.2V45.8c0-4,3.2-7.2,7.2-7.2
				h14.5c2.2,0,4.2,1,5.5,2.6C614.9,42.4,615.5,44,615.5,45.8z"/>
		</g>
	</g>
</g>
<g id="Instagram_icon" transform="translate(-517.01 552.091) rotate(-90)" class="st2">
	<path id="Tracé_15" class="st3" d="M532.1,517.3c1.8,0,3.5,0,5.3,0c1.1,0,2.2,0.1,3.4,0.1c1.6,0.1,3.1,0.4,4.6,1
		c2.6,1.1,4.6,3.2,5.5,5.8c0.4,1,0.6,2,0.7,3.1c0.1,1,0.2,2,0.2,3c0.1,4,0.1,8,0,11.9c0,1.1-0.1,2.1-0.1,3.2
		c-0.1,1.5-0.3,2.9-0.9,4.3c-1,2.8-3.2,5-6,5.9c-0.9,0.3-1.9,0.6-2.9,0.7c-1,0.1-2,0.2-3.1,0.2c-4.1,0.1-8.2,0.1-12.3,0
		c-1.2,0-2.4-0.1-3.5-0.2c-1.6-0.1-3.2-0.5-4.6-1.2c-2.3-1.1-4-3-4.9-5.4c-0.4-1.1-0.7-2.3-0.8-3.5s-0.2-2.3-0.2-3.5
		c0-3.3,0-6.6,0-9.8c0-1.1,0-2.3,0.1-3.4c0-0.9,0.1-1.8,0.2-2.6c0.2-1.7,0.7-3.3,1.6-4.7c1.2-2,3.2-3.5,5.4-4.3c1-0.3,2-0.5,3-0.6
		c0.9-0.1,1.8-0.1,2.7-0.2C527.7,517.3,529.9,517.3,532.1,517.3L532.1,517.3z M548.3,537.6c0-3.1,0-5.8-0.1-8.4
		c0-0.9-0.1-1.7-0.3-2.6c-0.2-0.9-0.5-1.7-1-2.4c-0.8-1.3-2.1-2.2-3.6-2.7c-1-0.3-2-0.5-3.1-0.5c-1.3-0.1-2.6-0.1-4-0.1
		c-2.7,0-5.3,0-8,0c-1.7,0-3.5,0-5.2,0.2c-0.9,0.1-1.8,0.3-2.7,0.6c-1.7,0.7-3,2-3.7,3.7c-0.4,1.1-0.6,2.2-0.7,3.3
		c-0.1,1.2-0.1,2.3-0.1,3.5c0,3.6,0,7.2,0,10.7c0,1.1,0,2.1,0.2,3.2c0.1,0.9,0.3,1.8,0.7,2.7c0.6,1.6,1.8,2.8,3.4,3.5
		c1,0.4,2.1,0.7,3.3,0.8c0.9,0.1,1.8,0.1,2.6,0.1c3.7,0.1,7.4,0.1,11.1,0c1.3,0,2.6,0,3.9-0.2c0.8-0.1,1.5-0.2,2.3-0.5
		c1.9-0.6,3.3-2,4-3.8c0.4-1,0.6-2,0.6-3.1c0.1-1,0.1-2.1,0.1-3.1C548.3,540.7,548.3,538.9,548.3,537.6L548.3,537.6z"/>
	<path id="Tracé_16" class="st3" d="M532.1,526.9c5.6,0,10.1,4.5,10.1,10.1s-4.5,10.1-10.1,10.1S522,542.6,522,537
		S526.5,526.9,532.1,526.9L532.1,526.9z M532.1,543.6c3.6,0,6.6-2.9,6.6-6.6c0-3.6-2.9-6.6-6.6-6.6c-3.6,0-6.6,2.9-6.6,6.6
		C525.5,540.6,528.5,543.6,532.1,543.6L532.1,543.6L532.1,543.6z"/>
	<path id="Tracé_17" class="st3" d="M542.7,524.1c1.3,0,2.3,1.1,2.3,2.4c0,1.3-1.1,2.3-2.4,2.3c-1.3,0-2.3-1.1-2.3-2.4
		c0-0.6,0.3-1.2,0.7-1.7C541.4,524.4,542,524.1,542.7,524.1z"/>
</g>
<polyline class="st7" points="3.5,8.3 20.2,21.7 36.4,8.7 "/>
</svg>
