<svg xmlns="http://www.w3.org/2000/svg" width="25.637" height="25.641" viewBox="0 0 25.637 25.641">
  <g id="Link" transform="translate(-0.039 0)">
    <g id="Groupe_67" data-name="Groupe 67" transform="translate(0.039 8.243)">
      <g id="Groupe_66" data-name="Groupe 66" transform="translate(0)">
        <path id="Tracé_657" data-name="Tracé 657" d="M15.682,166.366a5.815,5.815,0,0,0-1-.808,5.983,5.983,0,0,0-7.456.808L1.787,171.8a5.982,5.982,0,0,0,8.456,8.464l4.486-4.486a.427.427,0,0,0-.3-.731h-.171a7.192,7.192,0,0,1-2.735-.53.427.427,0,0,0-.466.094l-3.226,3.23A2.565,2.565,0,0,1,4.2,174.219l5.456-5.452a2.564,2.564,0,0,1,3.623,0,1.752,1.752,0,0,0,2.4,0,1.692,1.692,0,0,0,0-2.4Z" transform="translate(-0.039 -164.614)" fill="#333"/>
      </g>
    </g>
    <g id="Groupe_69" data-name="Groupe 69" transform="translate(9.526 0)">
      <g id="Groupe_68" data-name="Groupe 68" transform="translate(0 0)">
        <path id="Tracé_658" data-name="Tracé 658" d="M203.9,1.752a5.982,5.982,0,0,0-8.46,0L190.958,6.23a.429.429,0,0,0,.312.731h.158a7.178,7.178,0,0,1,2.73.534.427.427,0,0,0,.466-.094l3.217-3.213a2.565,2.565,0,0,1,3.628,3.628l-4.008,4-.034.038-1.4,1.393a2.564,2.564,0,0,1-3.623,0,1.752,1.752,0,0,0-2.4,0,1.7,1.7,0,0,0,0,2.41,5.931,5.931,0,0,0,1.709,1.2c.09.043.179.077.269.115s.184.068.273.1.184.064.273.09l.252.068c.171.043.342.077.517.107a5.947,5.947,0,0,0,.637.06h.325l.256-.03c.094,0,.192-.026.3-.026h.145l.295-.043.137-.026.248-.051h.047a5.981,5.981,0,0,0,2.773-1.572l5.439-5.439A5.982,5.982,0,0,0,203.9,1.752Z" transform="translate(-189.502 0)" fill="#333"/>
      </g>
    </g>
  </g>
</svg>
