<svg id="Layer_1" data-name="Layer 1" xmlns="http://www.w3.org/2000/svg" width="82.773" height="40.153" viewBox="0 0 82.773 40.153">
  <path id="Tracé_18" data-name="Tracé 18" d="M84.283,41.63H78.542c-.542,0-.542,0-.542.542v.867c0,.65,0,.65.542.65h.975c.7,0,.7,0,.7.7v7.041h-.054V58.8c0,.271.162.379.433.379h1.083c.975,0,.867,0,.867-.867V44.067c0-.217.108-.379.433-.325h.379c.487,0,1.083.162,1.354-.162s.108-.921.108-1.354C84.824,41.684,84.824,41.63,84.283,41.63Z" transform="translate(-35.755 -19.082)" fill="#7b4a4b"/>
  <path id="Tracé_19" data-name="Tracé 19" d="M102.475,41.643c-.487-.054-.65.108-.758.542L100.634,47.6a5.118,5.118,0,0,1-.433,1.516l-.542-2.166-1.083-4.82c-.108-.271-.108-.542-.487-.542a9.239,9.239,0,0,0-1.9,0v.054a.823.823,0,0,0,.108.542l2.491,9.695a6.862,6.862,0,0,1,.217,1.625v5.075c0,.379.108.542.542.542h1.137c.65,0,.7,0,.7-.65V53.488a5.736,5.736,0,0,1,.162-1.517l2.383-9.37a1.825,1.825,0,0,0,.162-.975,13.54,13.54,0,0,0-1.625.016Z" transform="translate(-44.09 -19.04)" fill="#7b4a4b"/>
  <path id="Tracé_20" data-name="Tracé 20" d="M93.72,15.176V3.1A2.848,2.848,0,0,0,90.849.12a7.707,7.707,0,0,0-.867,0H87.274c-1.029,0-.975-.108-.975.921V8.948h0v8.395c0,.271.108.379.379.379h4.6A2.39,2.39,0,0,0,93.72,15.176Zm-3.575.379h-.758c-.7,0-.7,0-.7-.65V9.327a2.135,2.135,0,0,1-.054-.487V2.882c0-.6,0-.65.65-.65h1.083a.975.975,0,0,1,.975.921,4.333,4.333,0,0,1,0,.65V14.364C91.337,15.393,91.174,15.555,90.145,15.555Z" transform="translate(-39.559 -0.048)" fill="#7b4a4b"/>
  <path id="Tracé_21" data-name="Tracé 21" d="M52.549,43.521a2.221,2.221,0,0,0-2.166-1.95,13.307,13.307,0,0,0-2.708,0,2.166,2.166,0,0,0-2.112,1.9,7.469,7.469,0,0,0-.108,1.517v5.362H45.4v5.308a10.21,10.21,0,0,0,.108,1.408A2.275,2.275,0,0,0,47.729,59.1a16.643,16.643,0,0,0,2.546,0A2.275,2.275,0,0,0,52.5,57.045a7.041,7.041,0,0,0,.054-.758c.054-1.571.162-1.3-1.192-1.3-1.029,0-1.029,0-1.083.975v.162a.915.915,0,0,1-.975.867h-.542c-.65,0-.921-.271-.975-.975a3.017,3.017,0,0,1,0-.542V45.184a5.9,5.9,0,0,1,0-.758.764.764,0,0,1,.379-.6,1.9,1.9,0,0,1,1.517-.108c.542.162.542.6.542,1.029V46c0,.271.108.487.433.487h1.625a.271.271,0,0,0,.276-.265.222.222,0,0,0,0-.06A16.7,16.7,0,0,0,52.549,43.521Z" transform="translate(-20.811 -19.023)" fill="#7b4a4b"/>
  <path id="Tracé_22" data-name="Tracé 22" d="M69.494.244a11.78,11.78,0,0,0-3.087,0,2.166,2.166,0,0,0-2.058,1.988,11,11,0,0,0-.108,1.462V16.422c0,.433-.217.975.108,1.192s.812.108,1.246.108c1.083,0,.921.162.975-.921V12.035c0-.7,0-.7.7-.7h1.354c.6,0,.65,0,.65.542v4.17c0,.542-.217,1.192.108,1.517.379.433,1.083.162,1.625.162s.6,0,.6-.65V3.315a5.849,5.849,0,0,0-.162-1.3A2.166,2.166,0,0,0,69.494.244Zm-.217,8.232c0,.6,0,.6-.65.6H67c-.325,0-.487-.054-.487-.433V3.223c0-.7.325-.975,1.029-.975H67.6c1.354-.054,1.625.162,1.625,1.462V5.931h.054Z" transform="translate(-29.415 -0.064)" fill="#7b4a4b"/>
  <path id="Tracé_23" data-name="Tracé 23" d="M68.929,43.238c0-.542.217-1.192-.108-1.517-.379-.433-1.083-.162-1.625-.162s-.6,0-.6.6v16.3c0,.65,0,.65.6.7h.65c1.246,0,1.083.108,1.083-1.083Z" transform="translate(-30.529 -19.011)" fill="#7b4a4b"/>
  <path id="Tracé_24" data-name="Tracé 24" d="M28.6,59.373c0,.379.217.487.542.433h3.575c1.462,0,1.246.271,1.3-1.3,0-.6,0-.6-.7-.6H29.954C28.329,57.91,28.654,57.585,28.6,59.373Z" transform="translate(-13.11 -26.534)" fill="#7b4a4b"/>
  <path id="Tracé_25" data-name="Tracé 25" d="M7.149,8.795V3.216a7.707,7.707,0,0,0,0-.867A2.275,2.275,0,0,0,4.929.183C3.412.059,1.95.183.487.183.162.183.054.346.054.6V9H0v8.341c0,.271.108.379.379.379H1.408c1.029,0,.921.108.921-.921V11.92c0-.542,0-.542.542-.542H4.441A2.51,2.51,0,0,0,7.149,8.795Zm-4.82-.758V5.708l.054.054V2.945c0-.65,0-.65.65-.7H3.9A.812.812,0,0,1,4.766,3v.054a2.892,2.892,0,0,1,0,.433V7.82c0,1.083-.217,1.354-1.3,1.354C2.112,9.174,2.383,9.266,2.329,8.036Z" transform="translate(0 -0.057)" fill="#7b4a4b"/>
  <path id="Tracé_26" data-name="Tracé 26" d="M20.894,9.818V16.48c0,1.192,0,1.192,1.192,1.192,1.083,0,1.083,0,1.083-1.137V12.2c0-1.083,0-.975,1.029-.975h.812c.975,0,.867,0,.867.867v4.983c0,.433.108.6.542.542H27.5c.758,0,.758,0,.758-.65V2.994A4.04,4.04,0,0,0,28.1,1.748,2.166,2.166,0,0,0,26.31.123a11.617,11.617,0,0,0-3.412,0,2.166,2.166,0,0,0-1.841,1.625,5.1,5.1,0,0,0-.162,1.571Zm2.329-6.57c0-.758.325-1.083,1.083-1.083h.217c1.192,0,1.408.217,1.408,1.354V8.5c0,.379-.108.542-.487.542a15.419,15.419,0,0,0-1.733,0c-.379,0-.487-.162-.487-.487Z" transform="translate(-9.575 0.003)" fill="#7b4a4b"/>
  <path id="Tracé_27" data-name="Tracé 27" d="M43.325,17.678H44.57c.542,0,.542,0,.542-.542v-5.9c0-.6,0-.6.758-.65h.217c.379,0,.542.162.6.542l.325,1.3.975,4.6c.162.65.162.7.921.7a5.773,5.773,0,0,0,1.462-.108,9.654,9.654,0,0,0-.217-1.029L48.9,10.962a.65.65,0,0,1,.271-.867,2.009,2.009,0,0,0,.758-1.137,4.062,4.062,0,0,0,.162-1.3V3a3.575,3.575,0,0,0-.054-.867A2.166,2.166,0,0,0,47.928.184a3.759,3.759,0,0,0-.65-.054H43.487c-.6,0-.6,0-.6.6V17.245C42.837,17.624,43,17.732,43.325,17.678ZM45.166,5.384h.054V2.946c0-.65,0-.65.65-.65h.975a.867.867,0,0,1,.867.7,1.4,1.4,0,0,1,.054.542V7.333a3.017,3.017,0,0,1,0,.542.926.926,0,0,1-.921.758H45.654c-.379,0-.487-.108-.487-.433Z" transform="translate(-19.656 -0.058)" fill="#7b4a4b"/>
  <path id="Tracé_28" data-name="Tracé 28" d="M147.254,15.76h-2.437c-.379,0-.542-.162-.542-.542V10.29c0-.325.108-.433.433-.433H145.9c1.571,0,1.571,0,1.516-1.625,0-.379-.162-.542-.542-.542h-2.058c-.325,0-.487-.108-.487-.433V2.8c0-.325.162-.433.433-.433h1.516c1.625,0,1.625,0,1.571-1.625,0-.433-.162-.542-.542-.542h-4.766c-.379,0-.542.108-.542.542V17.1c0,.65,0,.7.65.7h3.737c1.517,0,1.517,0,1.462-1.516C147.849,15.76,147.849,15.76,147.254,15.76Z" transform="translate(-65.092 -0.09)" fill="#7b4a4b"/>
  <path id="Tracé_29" data-name="Tracé 29" d="M118.173,59.78c1.625,0,1.3.325,1.354-1.408,0-.542,0-.542-.542-.542h-3.466c-1.462,0-1.462,0-1.354,1.462,0,.379.162.542.542.433l2.112.054Z" transform="translate(-52.313 -26.507)" fill="#7b4a4b"/>
  <path id="Tracé_30" data-name="Tracé 30" d="M121.883,9.1l.7.433,2.383,1.3a1.132,1.132,0,0,1,.6,1.083,8.662,8.662,0,0,0,0,1.3v1.554a.921.921,0,0,1-.921.921h-.6c-.65-.108-.867-.325-.867-.921v-.65c0-.271-.162-.379-.433-.379a5.513,5.513,0,0,0-1.9.162,5.5,5.5,0,0,0,.108,1.95,2.378,2.378,0,0,0,2.275,2h1.517c2.383.108,3.141-1.083,3.141-3.087V11.736c0-1.9-.108-2.112-1.733-3.033l-2.383-1.3a1.137,1.137,0,0,1-.6-1.083V3.574c0-.812.271-1.083,1.083-1.083.921,0,1.192.271,1.3,1.083,0,.487-.271,1.083.162,1.408.325.271.921.054,1.408.108h.379c.325,0,.379-.162.379-.433a11.579,11.579,0,0,0-.108-2.166A2.329,2.329,0,0,0,125.62.378a11.683,11.683,0,0,0-2.383,0A2.346,2.346,0,0,0,120.8,2.87v4.5A1.841,1.841,0,0,0,121.883,9.1Z" transform="translate(-55.373 -0.144)" fill="#7b4a4b"/>
  <path id="Tracé_31" data-name="Tracé 31" d="M110.116.219H108.6c-.271,0-.433.054-.433.433V8.993h.054v7.041c0,.542-.271,1.246.108,1.625s1.137.054,1.733.108c.325,0,.542-.054.487-.433V.544C110.55.273,110.387.164,110.116.219Z" transform="translate(-49.565 -0.093)" fill="#7b4a4b"/>
</svg>
