<svg xmlns="http://www.w3.org/2000/svg" width="18.01" height="26" viewBox="0 0 18.01 26">
  <path id="Music" d="M80.463,16.535a10.8,10.8,0,0,0,1.448-4.754,6.638,6.638,0,0,0-.7-3.3,9.323,9.323,0,0,0-3.6-3.544,10.173,10.173,0,0,1-2.66-2.246l-.122-.164A4.428,4.428,0,0,1,73.9.862,1.011,1.011,0,0,0,72.843,0a1,1,0,0,0-.93,1V18.819a5.786,5.786,0,0,0-3-.82c-2.756,0-5,1.794-5,4s2.244,4,5,4,5-1.794,5-4V10.342a7.2,7.2,0,0,1,4.636,5.45,5.641,5.641,0,0,1-.386.546,1,1,0,0,0,1.5,1.32,7.435,7.435,0,0,0,.734-1.032A.63.63,0,0,0,80.463,16.535Z" transform="translate(-63.912 0)" fill="#333"/>
</svg>
