<svg xmlns="http://www.w3.org/2000/svg" width="375.029" height="180.476" viewBox="0 0 375.029 180.476">
  <g id="PARADISE_GARDEN_Logo" data-name="PARADISE GARDEN Logo" transform="translate(-1523.865 -335.834)">
    <path id="Tracé_674" data-name="Tracé 674" d="M1728.112,417.029h-24.368v-8.854h24.348Z" transform="translate(169.384 68.119)" fill="#fff"/>
    <path id="Tracé_675" data-name="Tracé 675" d="M1710.633,387.825v79.51h-10.621V451.51L1688.6,415.318v52.036h-10.621v-79.51h10.641l11.4,38.406V387.825Z" transform="translate(145.117 48.956)" fill="#fff"/>
    <path id="Tracé_676" data-name="Tracé 676" d="M1665.405,457.685h15.727v9.631h-26.368V387.825h26.348l.019,9.65h-15.727V421.59h13.941v9.65h-13.941Z" transform="translate(123.262 48.956)" fill="#fff"/>
    <path id="Tracé_677" data-name="Tracé 677" d="M1660.43,403.106q0-15.261-14.95-15.281h-18.485v79.51h20.756q12.756,0,12.737-11.514Zm-10.621,51.046q0,3.553-4.194,3.553h-7.98v-60.23h7.417c3.184,0,4.757,1.922,4.757,5.767Z" transform="translate(97.112 48.957)" fill="#fff"/>
    <path id="Tracé_678" data-name="Tracé 678" d="M1626.452,434.211c4.194-1.845,6.31-6.233,6.31-13.164V401.436q0-13.6-12.194-13.611h-20.814v79.51h10.621V435.22h6.427l6.99,32.115,10.077-.019Zm-4.349-13.824c0,3.844-1.592,5.767-4.757,5.767h-6.97V397.475h6.97c3.165,0,4.757,1.922,4.757,5.767Z" transform="translate(71.462 48.957)" fill="#fff"/>
    <path id="Tracé_679" data-name="Tracé 679" d="M1605.439,467.326l-.02-65.88q0-13.6-12.737-13.611h-7.961q-12.728,0-12.737,13.611v65.88h10.621V438.2H1594.8v29.125Zm-22.814-38.736V402.126a4.063,4.063,0,0,1,0-1.184,4.117,4.117,0,0,1,4.66-3.476h2.854a5.641,5.641,0,0,1,1.146,0,4.134,4.134,0,0,1,3.514,4.66V428.59Z" transform="translate(45.312 48.966)" fill="#fff"/>
    <rect id="Rectangle_461" data-name="Rectangle 461" width="24.348" height="8.854" transform="translate(1523.865 476.332)" fill="#fff"/>
    <path id="Tracé_680" data-name="Tracé 680" d="M1567.54,410.319v-7.087c0-3.825-1.515-5.747-4.524-5.747h-2.66c-3.107,0-4.66,1.922-4.66,5.747v48.716c0,3.825,1.553,5.747,4.66,5.747h7.184V438.221h-5.534v-9.63h16.174v38.736h-20.814q-12.262,0-12.291-13.4V401.446q0-13.6,12.291-13.611h7.3q13.514,0,13.514,13.844v8.64Z" transform="translate(19.973 48.966)" fill="#fff"/>
    <path id="Tracé_681" data-name="Tracé 681" d="M1714.085,345.465V369.6h13.941v9.63h-13.941v26.465h15.708v9.631h-26.348V335.835h26.348v9.631Z" transform="translate(169.101)" fill="#fff"/>
    <path id="Tracé_682" data-name="Tracé 682" d="M1708.8,384.988v16.931q0,13.4-12.854,13.4h-6.524q-12.757.029-12.757-14.6v-4h10.64v4.33a4.142,4.142,0,0,0,3.573,4.66,4.038,4.038,0,0,0,1.185,0h1.883c2.815,0,4.213-1.553,4.213-4.66V387.551a3.884,3.884,0,0,0-.893-2.99,23,23,0,0,0-2.874-2l-10.077-5.65a33.2,33.2,0,0,1-4.815-2.99,6.861,6.861,0,0,1-2.155-3.165,15.725,15.725,0,0,1-.66-5.029V349.475q0-13.63,12.737-13.63h6.64q12.728,0,12.737,13.63v7.747h-10.641v-6.99a4.163,4.163,0,0,0-3.495-4.738,4.681,4.681,0,0,0-1.165-.019h-1.67c-3.029,0-4.543,1.592-4.524,4.757v13.184a3.894,3.894,0,0,0,.874,2.99,22.405,22.405,0,0,0,2.893,1.98l10.077,5.417a49.019,49.019,0,0,1,4.718,2.932,7.769,7.769,0,0,1,2.155,2.544A14.283,14.283,0,0,1,1708.8,384.988Z" transform="translate(143.884 0.01)" fill="#fff"/>
    <rect id="Rectangle_462" data-name="Rectangle 462" width="10.621" height="79.491" transform="translate(1790.006 335.854)" fill="#fff"/>
    <path id="Tracé_683" data-name="Tracé 683" d="M1666.61,351.116q0-15.261-14.951-15.281h-18.484v79.51h20.717q12.727,0,12.737-11.514Zm-10.66,51.046c0,2.369-1.4,3.553-4.213,3.553h-7.961v-60.23h7.417c3.165,0,4.757,1.922,4.757,5.728Z" transform="translate(102.932 0)" fill="#fff"/>
    <path id="Tracé_684" data-name="Tracé 684" d="M1626.1,335.845h-7.98q-12.728,0-12.718,13.63v65.861h10.621V386.211H1628.2v29.125h10.64V349.475Q1638.84,335.845,1626.1,335.845Zm2.078,14.29V376.6h-12.174V350.135a3.906,3.906,0,0,1,0-1.165,4.131,4.131,0,0,1,4.66-3.495h2.874a3.9,3.9,0,0,1,1.165,0A4.117,4.117,0,0,1,1628.18,350.135Z" transform="translate(76.782 0.01)" fill="#fff"/>
    <path id="Tracé_685" data-name="Tracé 685" d="M1605.094,382.24q6.32-2.767,6.31-13.164V349.485q0-13.66-12.155-13.65h-20.814v79.51h10.621v-32.1h6.446l6.97,32.1h10.019Zm-4.311-13.844c0,3.844-1.592,5.767-4.757,5.767h-6.99V345.485h6.99c3.165,0,4.757,1.922,4.757,5.767Z" transform="translate(51.386 0)" fill="#fff"/>
    <path id="Tracé_686" data-name="Tracé 686" d="M1571.363,335.845H1563.4q-12.757,0-12.737,13.63v65.861h10.621V386.211h12.174v29.125h10.64V349.475Q1584.1,335.845,1571.363,335.845Zm2.1,14.29V376.6h-12.194V350.135a6.037,6.037,0,0,1,0-1.184,4.128,4.128,0,0,1,4.66-3.476h2.893a3.775,3.775,0,0,1,1.146,0A4.131,4.131,0,0,1,1573.46,350.135Z" transform="translate(25.237 0.01)" fill="#fff"/>
    <path id="Tracé_687" data-name="Tracé 687" d="M1543.7,335.835h-19.378v79.491h10.621V386.57h8.854q12.727,0,12.737-13.514V349.465Q1556.537,335.835,1543.7,335.835Zm2.213,14.31V372.28c-.019,3.107-1.417,4.641-4.213,4.641h-6.757V345.485h6.194a4.035,4.035,0,0,1,1.184,0A4.17,4.17,0,0,1,1545.916,350.145Z" transform="translate(0.433 0)" fill="#fff"/>
  </g>
</svg>
