<svg xmlns="http://www.w3.org/2000/svg" width="160.55" height="77.262" viewBox="0 0 160.55 77.262">
  <g id="Paradise_Garden_Logo" data-name="Paradise Garden Logo" transform="translate(-1523.865 -335.834)">
    <path id="Tracé_674" data-name="Tracé 674" d="M1714.177,411.965h-10.432v-3.79h10.423Z" transform="translate(-30.36 -12.209)" fill="#fff"/>
    <path id="Tracé_675" data-name="Tracé 675" d="M1691.956,387.825v34.039h-4.547v-6.774l-4.888-15.494v22.277h-4.547V387.833h4.555l4.879,16.442v-16.45Z" transform="translate(-26.01 -8.775)" fill="#fff"/>
    <path id="Tracé_676" data-name="Tracé 676" d="M1659.32,417.732h6.733v4.123h-11.288v-34.03h11.28l.008,4.131h-6.733V402.28h5.968v4.131h-5.968Z" transform="translate(-22.093 -8.775)" fill="#fff"/>
    <path id="Tracé_677" data-name="Tracé 677" d="M1641.309,394.367q0-6.533-6.4-6.542H1627v34.039h8.886q5.461,0,5.453-4.929Zm-4.547,21.853q0,1.521-1.8,1.521h-3.416V391.956h3.176c1.363,0,2.036.823,2.036,2.469Z" transform="translate(-17.406 -8.775)" fill="#fff"/>
    <path id="Tracé_678" data-name="Tracé 678" d="M1611.184,407.683c1.8-.79,2.7-2.668,2.7-5.636v-8.4q0-5.823-5.22-5.827h-8.911v34.039h4.547V408.115h2.751l2.992,13.748,4.314-.008Zm-1.862-5.918c0,1.646-.682,2.469-2.036,2.469H1604.3V391.956h2.984c1.355,0,2.036.823,2.036,2.469Z" transform="translate(-12.809 -8.775)" fill="#fff"/>
    <path id="Tracé_679" data-name="Tracé 679" d="M1586.307,421.865l-.008-28.2q0-5.823-5.453-5.827h-3.408q-5.449,0-5.453,5.827v28.2h4.547V409.4h5.22v12.468Zm-9.767-16.583v-11.33a1.73,1.73,0,0,1,0-.507,1.762,1.762,0,0,1,1.995-1.488h1.222a2.412,2.412,0,0,1,.49,0,1.77,1.77,0,0,1,1.5,1.995v11.33Z" transform="translate(-8.122 -8.776)" fill="#fff"/>
    <rect id="Rectangle_461" data-name="Rectangle 461" width="10.424" height="3.79" transform="translate(1523.865 395.982)" fill="#fff"/>
    <path id="Tracé_680" data-name="Tracé 680" d="M1554.692,397.461v-3.034c0-1.638-.648-2.46-1.937-2.46h-1.139c-1.33,0-1.995.823-1.995,2.46v20.855c0,1.638.665,2.46,1.995,2.46h3.076v-8.337h-2.369v-4.123h6.924v16.583h-8.911q-5.249,0-5.262-5.735V393.662q0-5.823,5.262-5.827h3.125q5.785,0,5.785,5.927v3.7Z" transform="translate(-3.58 -8.776)" fill="#fff"/>
    <path id="Tracé_681" data-name="Tracé 681" d="M1708,339.957V350.29h5.968v4.123H1708v11.33h6.724v4.123h-11.279v-34.03h11.279v4.123Z" transform="translate(-30.309 0)" fill="#fff"/>
    <path id="Tracé_682" data-name="Tracé 682" d="M1690.422,356.883v7.248q0,5.735-5.5,5.735h-2.793q-5.461.012-5.461-6.251V361.9h4.555v1.854a1.773,1.773,0,0,0,1.529,1.995,1.73,1.73,0,0,0,.507,0h.806c1.205,0,1.8-.665,1.8-1.995V357.98a1.663,1.663,0,0,0-.382-1.28,9.842,9.842,0,0,0-1.23-.856l-4.314-2.419a14.2,14.2,0,0,1-2.061-1.28,2.935,2.935,0,0,1-.923-1.355,6.731,6.731,0,0,1-.283-2.153V341.68q0-5.835,5.453-5.835h2.843q5.448,0,5.453,5.835V345h-4.555V342a1.782,1.782,0,0,0-1.5-2.028,2,2,0,0,0-.5-.008h-.715c-1.3,0-1.945.682-1.937,2.036v5.644a1.666,1.666,0,0,0,.374,1.28,9.6,9.6,0,0,0,1.239.848l4.314,2.319a20.994,20.994,0,0,1,2.02,1.255,3.326,3.326,0,0,1,.923,1.089A6.111,6.111,0,0,1,1690.422,356.883Z" transform="translate(-25.789 -0.002)" fill="#fff"/>
    <rect id="Rectangle_462" data-name="Rectangle 462" width="4.547" height="34.03" transform="translate(1637.8 335.843)" fill="#fff"/>
    <path id="Tracé_683" data-name="Tracé 683" d="M1647.489,342.377q0-6.533-6.4-6.542h-7.913v34.039h8.869q5.449,0,5.453-4.929Zm-4.563,21.853c0,1.014-.6,1.521-1.8,1.521h-3.408V339.966h3.175c1.355,0,2.037.823,2.037,2.452Z" transform="translate(-18.449 0)" fill="#fff"/>
    <path id="Tracé_684" data-name="Tracé 684" d="M1614.266,335.845h-3.416q-5.449,0-5.444,5.835v28.2h4.547V357.407h5.212v12.468h4.555v-28.2Q1619.719,335.845,1614.266,335.845Zm.89,6.118v11.33h-5.212v-11.33a1.666,1.666,0,0,1,0-.5,1.768,1.768,0,0,1,1.995-1.5h1.23a1.672,1.672,0,0,1,.5,0A1.762,1.762,0,0,1,1615.155,341.963Z" transform="translate(-13.762 -0.002)" fill="#fff"/>
    <path id="Tracé_685" data-name="Tracé 685" d="M1589.848,355.7q2.706-1.185,2.7-5.636v-8.387q0-5.848-5.2-5.843h-8.911v34.039h4.547v-13.74h2.76l2.984,13.74h4.289ZM1588,349.775c0,1.646-.682,2.469-2.036,2.469h-2.992V339.966h2.992c1.355,0,2.036.823,2.036,2.469Z" transform="translate(-9.21 0)" fill="#fff"/>
    <path id="Tracé_686" data-name="Tracé 686" d="M1559.526,335.845h-3.408q-5.461,0-5.453,5.835v28.2h4.547V357.407h5.212v12.468h4.555v-28.2Q1564.979,335.845,1559.526,335.845Zm.9,6.118v11.33h-5.22v-11.33a2.587,2.587,0,0,1,0-.507,1.767,1.767,0,0,1,2-1.488h1.238a1.617,1.617,0,0,1,.49,0A1.768,1.768,0,0,1,1560.423,341.963Z" transform="translate(-4.523 -0.002)" fill="#fff"/>
    <path id="Tracé_687" data-name="Tracé 687" d="M1532.621,335.835h-8.3v34.03h4.547v-12.31h3.79q5.449,0,5.453-5.785v-10.1Q1538.115,335.835,1532.621,335.835Zm.948,6.126v9.476c-.008,1.33-.607,1.987-1.8,1.987h-2.893V339.966h2.651a1.728,1.728,0,0,1,.507,0A1.785,1.785,0,0,1,1533.568,341.961Z" transform="translate(-0.078 0)" fill="#fff"/>
  </g>
</svg>
