<?xml version="1.0" encoding="utf-8"?>
<!-- Generator: Adobe Illustrator 23.0.3, SVG Export Plug-In . SVG Version: 6.00 Build 0)  -->
<svg version="1.1" id="Calque_1" xmlns="http://www.w3.org/2000/svg" xmlns:xlink="http://www.w3.org/1999/xlink" x="0px" y="0px"
	 viewBox="0 0 46 46" style="enable-background:new 0 0 46 46;" xml:space="preserve">
<style type="text/css">
	.st0{fill:#FFFFFF;}
	.st1{display:none;fill:#E22323;}
</style>
<title>smallfb</title>
<g id="Layer_2">
	<g id="Layer_1-2">
		<path class="st0" d="M0,38.3V7.8C0.1,7.2,0.2,6.6,0.4,6c0.9-2.8,3.1-4.9,5.9-5.7c0.5-0.1,1-0.2,1.5-0.3h30.4
			c0.5,0.1,1,0.2,1.5,0.3c2.9,0.8,5.1,3,5.9,5.9c0.2,0.5,0.2,1,0.3,1.5v30.6c-0.1,0.5-0.2,1-0.4,1.5c-0.8,2.8-3,5.1-5.8,5.9
			c-0.5,0.2-1,0.2-1.5,0.4H7.7c-0.1,0-0.1-0.1-0.2-0.1c-1.2-0.1-2.3-0.5-3.3-1.2c-1.9-1.1-3.3-2.9-3.9-5.1C0.2,39.2,0.1,38.8,0,38.3
			z M36.8,19.4H32c0-1.3,0-2.5,0-3.8c-0.1-0.7,0.4-1.3,1.1-1.3c0.1,0,0.1,0,0.2,0c1.2-0.1,2.3-0.1,3.5-0.1h0.5V8.9H37
			c-1.7,0-3.4,0-5,0c-0.8,0-1.6,0.1-2.4,0.2c-1.4,0.2-2.6,0.8-3.5,1.9c-0.8,1-1.2,2.3-1.3,3.5c-0.1,1.4-0.1,2.9-0.1,4.4
			c0,0.1,0,0.3,0,0.5h-2.8v4.8c0,0.5,0,0.5,0.5,0.5h2.3v16h7.2V24.8h4c0.3,0,0.4-0.1,0.4-0.3c0.1-1,0.2-2.1,0.3-3.1
			C36.7,20.7,36.7,20.1,36.8,19.4z"/>
		<path class="st1" d="M36.8,19.4c-0.1,0.7-0.1,1.3-0.2,2c-0.1,1-0.2,2.1-0.3,3.1c0,0.3-0.1,0.3-0.4,0.3h-4v15.9h-7.2V24.8h-2.3
			c-0.5,0-0.5,0-0.5-0.5v-4.8h2.8c0-0.2,0-0.3,0-0.5c0-1.5,0-2.9,0.1-4.4c0-1.3,0.5-2.5,1.3-3.6c0.9-1.1,2.1-1.8,3.4-1.9
			c0.8-0.1,1.6-0.2,2.4-0.2c1.7,0,3.4,0,5,0h0.2v5.3h-0.5c-1.2,0-2.3,0-3.5,0.1c-0.7,0-1.2,0.6-1.2,1.3c0,0,0,0.1,0,0.1
			c0,1.2,0,2.5,0,3.7H36.8z"/>
	</g>
</g>
</svg>
